<?xml version="1.0" encoding="utf-8"?>
<!-- Generator: Adobe Illustrator 16.0.0, SVG Export Plug-In . SVG Version: 6.00 Build 0)  -->
<svg version="1.2" baseProfile="tiny" id="Layer_1" xmlns="http://www.w3.org/2000/svg" xmlns:xlink="http://www.w3.org/1999/xlink"
	 x="0px" y="0px"  viewBox="0 0 410.738 185.228" xml:space="preserve">
<g>
	<g>
		<g>
			<path fill="#29093F" d="M79.013,9.003c0-0.994,0.603-1.589,1.61-1.589h10.436c1.216,0,1.72,0.595,1.72,1.589v76.239
				c0,0.99-0.504,1.589-1.72,1.589H80.623c-1.007,0-1.61-0.599-1.61-1.589V53.676H66.047v31.566c0,0.99-0.603,1.589-1.624,1.589H54
				c-1.217,0-1.721-0.599-1.721-1.589V9.003c0-0.994,0.503-1.589,1.721-1.589h10.423c1.021,0,1.624,0.595,1.624,1.589V40.57h12.966
				V9.003z"/>
		</g>
		<g>
			<path fill="#29093F" d="M138.958,86.832c-0.91,0-1.418-0.498-1.617-1.388l-2.839-14.497h-18.025l-2.734,14.497
				c-0.204,0.891-0.707,1.388-1.617,1.388h-10.834c-1.113,0-1.617-0.599-1.317-1.688l16.809-76.337
				c0.204-0.992,0.805-1.392,1.72-1.392h14.075c0.915,0,1.518,0.399,1.721,1.392l16.809,76.337c0.202,1.089-0.204,1.688-1.415,1.688
				H138.958z M125.494,24.788l-6.484,34.642h12.96L125.494,24.788z"/>
		</g>
		<g>
			<path fill="#29093F" d="M198.808,32.43c0,0.996-0.61,1.589-1.622,1.589h-10.123c-1.115,0-1.627-0.593-1.627-1.589v-7.94
				c0-2.582-1.412-3.969-4.042-3.969h-5.269c-2.734,0-4.057,1.388-4.057,3.969v45.267c0,2.68,1.421,3.97,4.057,3.97h5.269
				c2.63,0,4.042-1.29,4.042-3.97v-7.941c0-0.995,0.512-1.588,1.627-1.588h10.123c1.012,0,1.622,0.593,1.622,1.588v10.723
				c0,9.329-5.163,14.294-14.581,14.294h-11.346c-9.514,0-14.676-4.966-14.676-14.294V21.709c0-9.33,5.162-14.295,14.676-14.295
				h11.346c9.418,0,14.581,4.966,14.581,14.295V32.43z"/>
		</g>
		<g>
			<path fill="#29093F" d="M241.543,86.832c-1.218,0-1.93-0.498-2.336-1.49L226.45,55.857l-3.742,7.052v21.933
				c0,1.29-0.707,1.989-2.028,1.989h-9.716c-1.322,0-2.029-0.699-2.029-1.989V9.399c0-1.288,0.707-1.985,2.029-1.985h9.716
				c1.321,0,2.028,0.697,2.028,1.985v30.774L238.3,8.901c0.508-0.989,1.217-1.487,2.333-1.487h10.626
				c1.518,0,2.125,0.995,1.421,2.384l-17.215,34.643l18.325,40.104c0.707,1.29,0.104,2.286-1.518,2.286H241.543z"/>
		</g>
		<g>
			<path fill="#29093F" d="M301.59,18.931c0,0.993-0.404,1.685-1.621,1.685h-25.313v19.855h19.342c1.007,0,1.617,0.598,1.617,1.69
				v9.827c0,1.091-0.61,1.688-1.617,1.688h-19.342v20.05h25.313c1.217,0,1.621,0.498,1.621,1.589v9.928
				c0,0.99-0.404,1.589-1.621,1.589H262.71c-0.917,0-1.521-0.599-1.521-1.589V9.003c0-0.994,0.604-1.589,1.521-1.589h37.259
				c1.217,0,1.621,0.595,1.621,1.589V18.931z"/>
		</g>
		<g>
			<path fill="#29093F" d="M346.757,86.832c-0.915,0-1.421-0.498-1.625-1.388l-2.831-14.497h-18.025l-2.735,14.497
				c-0.201,0.891-0.707,1.388-1.614,1.388h-10.844c-1.104,0-1.615-0.599-1.313-1.688l16.808-76.337
				c0.201-0.992,0.812-1.392,1.722-1.392h14.077c0.912,0,1.521,0.399,1.721,1.392l16.808,76.337
				c0.204,1.089-0.208,1.688-1.418,1.688H346.757z M333.287,24.788L326.8,59.43h12.969L333.287,24.788z"/>
		</g>
	</g>
	<g>
		<g>
			<path fill="#29093F" d="M46.884,98.434c1.112,0,1.617,0.601,1.617,1.59v9.928c0,0.992-0.504,1.588-1.617,1.588H35.132v64.723
				c0,1.092-0.502,1.59-1.616,1.59H22.983c-1.008,0-1.616-0.498-1.616-1.59v-64.723H9.617c-1.008,0-1.617-0.596-1.617-1.588v-9.928
				c0-0.989,0.609-1.59,1.617-1.59H46.884z"/>
		</g>
		<g>
			<path fill="#29093F" d="M95.084,98.434c1.112,0,2.021,0.898,2.021,1.988v63.131c0,9.333-5.064,14.299-14.577,14.299H71.189
				c-9.519,0-14.583-4.966-14.583-14.299v-63.131c0-1.09,0.909-1.988,2.029-1.988h9.715c1.119,0,2.021,0.898,2.021,1.988v60.354
				c0,2.682,1.421,3.971,4.057,3.971h5.268c2.629,0,4.048-1.289,4.048-3.971v-60.354c0-1.09,0.912-1.988,2.022-1.988H95.084z"/>
		</g>
		<g>
			<path fill="#29093F" d="M173.157,123.449c0,0.996-0.608,1.59-1.622,1.59h-10.121c-1.112,0-1.623-0.594-1.623-1.59v-7.939
				c0-2.58-1.414-3.971-4.048-3.971h-5.268c-2.729,0-4.051,1.391-4.051,3.971v45.266c0,2.682,1.421,3.971,4.051,3.971h5.268
				c2.635,0,4.048-1.289,4.048-3.971v-7.941c0-0.994,0.511-1.588,1.623-1.588h10.121c1.014,0,1.622,0.594,1.622,1.588v10.719
				c0,9.333-5.16,14.299-14.577,14.299h-11.344c-9.521,0-14.682-4.966-14.682-14.299v-50.823c0-9.33,5.161-14.296,14.682-14.296
				h11.344c9.417,0,14.577,4.966,14.577,14.296V123.449z"/>
		</g>
		<g>
			<path fill="#29093F" d="M195.439,98.434c1.008,0,1.616,0.601,1.616,1.59v76.238c0,0.992-0.608,1.59-1.616,1.59h-10.53
				c-1.112,0-1.622-0.598-1.622-1.59v-76.238c0-0.989,0.51-1.59,1.622-1.59H195.439z"/>
		</g>
		<g>
			<path fill="#29093F" d="M245.661,98.434c1.113,0,2.023,0.898,2.023,1.988v63.131c0,9.333-5.059,14.299-14.578,14.299h-11.341
				c-9.517,0-14.581-4.966-14.581-14.299v-63.131c0-1.09,0.915-1.988,2.026-1.988h9.726c1.111,0,2.019,0.898,2.019,1.988v60.354
				c0,2.682,1.414,3.971,4.052,3.971h5.26c2.636,0,4.057-1.289,4.057-3.971v-60.354c0-1.09,0.91-1.988,2.021-1.988H245.661z"/>
		</g>
		<g>
			<path fill="#29093F" d="M257.816,100.023c0-0.989,0.511-1.59,1.624-1.59h24.3c9.52,0,14.578,5.062,14.578,14.397v50.722
				c0,9.333-5.059,14.299-14.578,14.299h-24.3c-1.113,0-1.624-0.498-1.624-1.59V100.023z M280.908,164.746
				c2.629,0,4.047-1.289,4.047-3.971v-45.163c0-2.683-1.418-4.073-4.047-4.073h-9.319v53.207H280.908z"/>
		</g>
		<g>
			<path fill="#29093F" d="M343.487,177.852c-0.915,0-1.421-0.498-1.624-1.394l-2.83-14.493h-18.027l-2.735,14.493
				c-0.201,0.896-0.704,1.394-1.621,1.394h-10.83c-1.118,0-1.626-0.598-1.318-1.686l16.808-76.34
				c0.203-0.992,0.813-1.393,1.721-1.393h14.08c0.91,0,1.518,0.4,1.721,1.393l16.801,76.34c0.211,1.088-0.196,1.686-1.411,1.686
				H343.487z M330.017,115.805l-6.478,34.646h12.954L330.017,115.805z"/>
		</g>
		<g>
			<path fill="#29093F" d="M362.727,100.023c0-0.989,0.506-1.59,1.624-1.59h24.302c9.518,0,14.576,5.062,14.576,14.397v50.722
				c0,9.333-5.059,14.299-14.576,14.299h-24.302c-1.118,0-1.624-0.498-1.624-1.59V100.023z M385.811,164.746
				c2.639,0,4.053-1.289,4.053-3.971v-45.163c0-2.683-1.414-4.073-4.053-4.073H376.5v53.207H385.811z"/>
		</g>
	</g>
</g>
</svg>
