<?xml version="1.0" encoding="UTF-8" standalone="no"?>
<!-- Created with Inkscape (http://www.inkscape.org/) -->

<svg
   xmlns:dc="http://purl.org/dc/elements/1.1/"
   xmlns:cc="http://creativecommons.org/ns#"
   xmlns:rdf="http://www.w3.org/1999/02/22-rdf-syntax-ns#"
   xmlns:svg="http://www.w3.org/2000/svg"
   xmlns="http://www.w3.org/2000/svg"
   xmlns:sodipodi="http://sodipodi.sourceforge.net/DTD/sodipodi-0.dtd"
   xmlns:inkscape="http://www.inkscape.org/namespaces/inkscape"
   width="367.84808mm"
   height="66.04438mm"
   viewBox="0 0 1303.3987 234.01552"
   id="svg2"
   version="1.1"
   inkscape:version="0.91 r"
   sodipodi:docname="htc2.svg">
  <defs
     id="defs4">
    <clipPath
       id="clipPath3676"
       clipPathUnits="userSpaceOnUse">
      <path
         inkscape:connector-curvature="0"
         id="path3678"
         d="m 0,1200 1200,0 L 1200,0 0,0 0,1200 Z" />
    </clipPath>
    <clipPath
       id="clipPath3744"
       clipPathUnits="userSpaceOnUse">
      <path
         inkscape:connector-curvature="0"
         id="path3746"
         d="m 0,1200 1200,0 L 1200,0 0,0 0,1200 Z" />
    </clipPath>
  </defs>
  <sodipodi:namedview
     id="base"
     pagecolor="#ffffff"
     bordercolor="#666666"
     borderopacity="1.0"
     inkscape:pageopacity="0.0"
     inkscape:pageshadow="2"
     inkscape:zoom="0.35"
     inkscape:cx="140.98509"
     inkscape:cy="2.9117053"
     inkscape:document-units="px"
     inkscape:current-layer="layer1"
     showgrid="false"
     fit-margin-top="0"
     fit-margin-left="0"
     fit-margin-right="0"
     fit-margin-bottom="0"
     inkscape:window-width="1543"
     inkscape:window-height="879"
     inkscape:window-x="57"
     inkscape:window-y="21"
     inkscape:window-maximized="1" />
  <metadata
     id="metadata7">
    <rdf:RDF>
      <cc:Work
         rdf:about="">
        <dc:format>image/svg+xml</dc:format>
        <dc:type
           rdf:resource="http://purl.org/dc/dcmitype/StillImage" />
        <dc:title></dc:title>
      </cc:Work>
    </rdf:RDF>
  </metadata>
  <g
     inkscape:label="Layer 1"
     inkscape:groupmode="layer"
     id="layer1"
     transform="translate(291.69938,-301.2584)">
    <g
       id="g3668"
       transform="matrix(1.25,0,0,-1.25,938.43187,535.27391)">
      <path
         d="m 0,0 -984.105,0 0,83.625 1042.719,0 0,-83.421 -5.017,0 0,78.877 -1032.691,0 0,-74.534 L 0,4.547 0,0 Z"
         style="fill:#17a7b7;fill-opacity:1;fill-rule:nonzero;stroke:none"
         id="path3670"
         inkscape:connector-curvature="0" />
    </g>
    <g
       id="g3672"
       transform="matrix(1.25,0,0,-1.25,-337.9695,1704.7154)">
      <g
         id="g3674"
         clip-path="url(#clipPath3676)">
        <g
           id="g3680"
           transform="translate(243.7905,1121.2334)">
          <path
             d="m 0,0 c 0,0.957 0.583,1.532 1.555,1.532 l 10.055,0 c 1.173,0 1.658,-0.575 1.658,-1.532 l 0,-73.484 c 0,-0.953 -0.485,-1.531 -1.658,-1.531 l -10.055,0 C 0.583,-75.015 0,-74.437 0,-73.484 l 0,30.426 -12.496,0 0,-30.426 c 0,-0.953 -0.584,-1.531 -1.564,-1.531 l -10.048,0 c -1.17,0 -1.66,0.578 -1.66,1.531 l 0,73.484 c 0,0.957 0.49,1.532 1.66,1.532 l 10.048,0 c 0.98,0 1.564,-0.575 1.564,-1.532 l 0,-30.426 12.496,0 L 0,0 Z"
             style="fill:#17a7b7;fill-opacity:1;fill-rule:nonzero;stroke:none"
             id="path3682"
             inkscape:connector-curvature="0" />
        </g>
        <g
           id="g3684"
           transform="translate(288.5898,1106.019)">
          <path
             d="m 0,0 -6.246,-33.391 12.492,0 L 0,0 Z m 12.978,-59.801 c -0.877,0 -1.365,0.481 -1.558,1.339 l -2.736,13.971 -17.371,0 -2.636,-13.971 c -0.196,-0.858 -0.681,-1.339 -1.558,-1.339 l -10.446,0 c -1.072,0 -1.558,0.578 -1.268,1.626 l 16.201,73.579 c 0.196,0.957 0.78,1.342 1.659,1.342 l 13.568,0 c 0.879,0 1.462,-0.385 1.658,-1.342 l 16.198,-73.579 c 0.195,-1.048 -0.192,-1.626 -1.362,-1.626 l -10.349,0 z"
             style="fill:#17a7b7;fill-opacity:1;fill-rule:nonzero;stroke:none"
             id="path3686"
             inkscape:connector-curvature="0" />
        </g>
        <g
           id="g3688"
           transform="translate(359.2568,1098.6533)">
          <path
             d="m 0,0 c 0,-0.96 -0.586,-1.531 -1.564,-1.531 l -9.759,0 c -1.075,0 -1.564,0.571 -1.564,1.531 l 0,7.653 c 0,2.488 -1.362,3.827 -3.9,3.827 l -5.077,0 c -2.633,0 -3.906,-1.339 -3.906,-3.827 l 0,-43.629 c 0,-2.583 1.368,-3.827 3.906,-3.827 l 5.077,0 c 2.538,0 3.9,1.244 3.9,3.827 l 0,7.653 c 0,0.959 0.489,1.531 1.564,1.531 l 9.759,0 c 0.978,0 1.564,-0.572 1.564,-1.531 l 0,-10.334 c 0,-8.991 -4.979,-13.778 -14.057,-13.778 l -10.931,0 c -9.173,0 -14.149,4.787 -14.149,13.778 l 0,48.99 c 0,8.993 4.976,13.779 14.149,13.779 l 10.931,0 C -4.979,24.112 0,19.326 0,10.333 L 0,0 Z"
             style="fill:#17a7b7;fill-opacity:1;fill-rule:nonzero;stroke:none"
             id="path3690"
             inkscape:connector-curvature="0" />
        </g>
        <g
           id="g3692"
           transform="translate(400.4463,1046.2183)">
          <path
             d="m 0,0 c -1.173,0 -1.857,0.48 -2.249,1.437 l -12.297,28.418 -3.61,-6.797 0,-21.141 C -18.156,0.673 -18.837,0 -20.108,0 l -9.368,0 c -1.271,0 -1.955,0.673 -1.955,1.917 l 0,72.716 c 0,1.241 0.684,1.914 1.955,1.914 l 9.368,0 c 1.271,0 1.952,-0.673 1.952,-1.914 l 0,-29.662 15.031,30.142 c 0.488,0.953 1.17,1.434 2.248,1.434 l 10.244,0 c 1.463,0 2.046,-0.96 1.365,-2.299 L -5.859,40.857 11.805,2.204 C 12.489,0.96 11.905,0 10.344,0 L 0,0 Z"
             style="fill:#17a7b7;fill-opacity:1;fill-rule:nonzero;stroke:none"
             id="path3694"
             inkscape:connector-curvature="0" />
        </g>
        <g
           id="g3696"
           transform="translate(458.3232,1111.6646)">
          <path
             d="m 0,0 c 0,-0.957 -0.39,-1.624 -1.563,-1.624 l -24.396,0 0,-19.138 18.639,0 c 0.973,0 1.56,-0.574 1.56,-1.629 l 0,-9.472 c 0,-1.051 -0.587,-1.626 -1.56,-1.626 l -18.639,0 0,-19.325 24.396,0 c 1.173,0 1.563,-0.48 1.563,-1.531 l 0,-9.57 c 0,-0.953 -0.39,-1.531 -1.563,-1.531 l -35.914,0 c -0.88,0 -1.463,0.578 -1.463,1.531 l 0,73.484 c 0,0.956 0.583,1.532 1.463,1.532 l 35.914,0 C -0.39,11.101 0,10.525 0,9.569 L 0,0 Z"
             style="fill:#17a7b7;fill-opacity:1;fill-rule:nonzero;stroke:none"
             id="path3698"
             inkscape:connector-curvature="0" />
        </g>
        <g
           id="g3700"
           transform="translate(488.8711,1106.019)">
          <path
             d="m 0,0 -6.246,-33.391 12.496,0 L 0,0 Z m 12.984,-59.801 c -0.879,0 -1.368,0.481 -1.56,1.339 l -2.735,13.971 -17.373,0 -2.632,-13.971 c -0.196,-0.858 -0.685,-1.339 -1.561,-1.339 l -10.446,0 c -1.07,0 -1.562,0.578 -1.268,1.626 l 16.2,73.579 c 0.196,0.957 0.782,1.342 1.659,1.342 l 13.568,0 c 0.877,0 1.463,-0.385 1.658,-1.342 l 16.201,-73.579 c 0.196,-1.048 -0.198,-1.626 -1.365,-1.626 l -10.346,0 z"
             style="fill:#17a7b7;fill-opacity:1;fill-rule:nonzero;stroke:none"
             id="path3702"
             inkscape:connector-curvature="0" />
        </g>
        <g
           id="g3704"
           transform="translate(579.4668,1122.7651)">
          <path
             d="m 0,0 c 1.076,0 1.565,-0.578 1.565,-1.532 l 0,-9.569 c 0,-0.957 -0.489,-1.531 -1.565,-1.531 l -11.318,0 0,-62.384 c 0,-1.05 -0.489,-1.531 -1.562,-1.531 l -10.149,0 c -0.975,0 -1.561,0.481 -1.561,1.531 l 0,62.384 -11.326,0 c -0.972,0 -1.559,0.574 -1.559,1.531 l 0,9.569 c 0,0.954 0.587,1.532 1.559,1.532 L 0,0 Z"
             style="fill:#17a7b7;fill-opacity:1;fill-rule:nonzero;stroke:none"
             id="path3706"
             inkscape:connector-curvature="0" />
        </g>
        <g
           id="g3708"
           transform="translate(625.9287,1122.7651)">
          <path
             d="m 0,0 c 1.073,0 1.952,-0.865 1.952,-1.917 l 0,-60.848 c 0,-8.995 -4.881,-13.782 -14.056,-13.782 l -10.929,0 c -9.173,0 -14.056,4.787 -14.056,13.782 l 0,60.848 c 0,1.052 0.883,1.917 1.954,1.917 l 9.368,0 c 1.077,0 1.952,-0.865 1.952,-1.917 l 0,-58.171 c 0,-2.586 1.369,-3.827 3.903,-3.827 l 5.079,0 c 2.536,0 3.904,1.241 3.904,3.827 l 0,58.171 c 0,1.052 0.876,1.917 1.946,1.917 L 0,0 Z"
             style="fill:#17a7b7;fill-opacity:1;fill-rule:nonzero;stroke:none"
             id="path3710"
             inkscape:connector-curvature="0" />
        </g>
        <g
           id="g3712"
           transform="translate(701.1816,1098.6533)">
          <path
             d="m 0,0 c 0,-0.96 -0.587,-1.531 -1.564,-1.531 l -9.756,0 c -1.074,0 -1.564,0.571 -1.564,1.531 l 0,7.653 c 0,2.488 -1.366,3.827 -3.901,3.827 l -5.076,0 c -2.636,0 -3.904,-1.339 -3.904,-3.827 l 0,-43.629 c 0,-2.586 1.366,-3.827 3.904,-3.827 l 5.076,0 c 2.535,0 3.901,1.241 3.901,3.827 l 0,7.653 c 0,0.959 0.49,1.531 1.564,1.531 l 9.756,0 c 0.977,0 1.564,-0.572 1.564,-1.531 l 0,-10.33 c 0,-8.995 -4.978,-13.782 -14.054,-13.782 l -10.932,0 c -9.176,0 -14.152,4.787 -14.152,13.782 l 0,48.986 c 0,8.993 4.976,13.779 14.152,13.779 l 10.932,0 C -4.978,24.112 0,19.326 0,10.333 L 0,0 Z"
             style="fill:#17a7b7;fill-opacity:1;fill-rule:nonzero;stroke:none"
             id="path3714"
             inkscape:connector-curvature="0" />
        </g>
        <g
           id="g3716"
           transform="translate(722.6562,1122.7651)">
          <path
             d="m 0,0 c 0.975,0 1.562,-0.578 1.562,-1.532 l 0,-73.484 c 0,-0.956 -0.587,-1.531 -1.562,-1.531 l -10.152,0 c -1.073,0 -1.562,0.575 -1.562,1.531 l 0,73.484 c 0,0.954 0.489,1.532 1.562,1.532 L 0,0 Z"
             style="fill:#17a7b7;fill-opacity:1;fill-rule:nonzero;stroke:none"
             id="path3718"
             inkscape:connector-curvature="0" />
        </g>
        <g
           id="g3720"
           transform="translate(771.0664,1122.7651)">
          <path
             d="m 0,0 c 1.072,0 1.948,-0.865 1.948,-1.917 l 0,-60.848 c 0,-8.995 -4.878,-13.782 -14.053,-13.782 l -10.932,0 c -9.172,0 -14.05,4.787 -14.05,13.782 l 0,60.848 c 0,1.052 0.88,1.917 1.948,1.917 l 9.371,0 c 1.077,0 1.953,-0.865 1.953,-1.917 l 0,-58.171 c 0,-2.586 1.365,-3.827 3.904,-3.827 l 5.072,0 c 2.539,0 3.907,1.241 3.907,3.827 l 0,58.171 c 0,1.052 0.878,1.917 1.949,1.917 L 0,0 Z"
             style="fill:#17a7b7;fill-opacity:1;fill-rule:nonzero;stroke:none"
             id="path3722"
             inkscape:connector-curvature="0" />
        </g>
        <g
           id="g3724"
           transform="translate(805.0352,1058.8501)">
          <path
             d="m 0,0 c 2.534,0 3.902,1.241 3.902,3.827 l 0,43.531 c 0,2.586 -1.368,3.925 -3.902,3.925 l -8.981,0 L -8.981,0 0,0 Z m -22.255,62.383 c 0,0.954 0.491,1.532 1.561,1.532 l 23.423,0 c 9.176,0 14.054,-4.878 14.054,-13.876 l 0,-48.889 c 0,-8.995 -4.878,-13.782 -14.054,-13.782 l -23.423,0 c -1.07,0 -1.561,0.481 -1.561,1.531 l 0,73.484 z"
             style="fill:#17a7b7;fill-opacity:1;fill-rule:nonzero;stroke:none"
             id="path3726"
             inkscape:connector-curvature="0" />
        </g>
        <g
           id="g3728"
           transform="translate(852.3691,1106.022)">
          <path
             d="m 0,0 -6.244,-33.394 12.49,0 L 0,0 Z m 12.983,-59.804 c -0.882,0 -1.368,0.481 -1.563,1.343 l -2.731,13.97 -17.374,0 -2.632,-13.97 c -0.199,-0.862 -0.684,-1.343 -1.564,-1.343 l -10.443,0 c -1.072,0 -1.564,0.575 -1.271,1.626 l 16.201,73.579 c 0.195,0.957 0.786,1.342 1.659,1.342 l 13.57,0 c 0.877,0 1.461,-0.385 1.658,-1.342 l 16.199,-73.579 c 0.199,-1.051 -0.196,-1.626 -1.363,-1.626 l -10.346,0 z"
             style="fill:#17a7b7;fill-opacity:1;fill-rule:nonzero;stroke:none"
             id="path3730"
             inkscape:connector-curvature="0" />
        </g>
        <g
           id="g3732"
           transform="translate(906.1484,1058.8501)">
          <path
             d="m 0,0 c 2.541,0 3.906,1.241 3.906,3.827 l 0,43.531 c 0,2.586 -1.365,3.925 -3.906,3.925 l -8.975,0 L -8.975,0 0,0 Z m -22.25,62.383 c 0,0.954 0.49,1.532 1.562,1.532 l 23.424,0 c 9.173,0 14.054,-4.878 14.054,-13.876 l 0,-48.889 c 0,-8.995 -4.881,-13.782 -14.054,-13.782 l -23.424,0 c -1.072,0 -1.562,0.481 -1.562,1.531 l 0,73.484 z"
             style="fill:#17a7b7;fill-opacity:1;fill-rule:nonzero;stroke:none"
             id="path3734"
             inkscape:connector-curvature="0" />
        </g>
      </g>
    </g>
    <g
       style="font-variant:normal;font-weight:normal;font-stretch:normal;font-size:45px;font-family:Norwester;-inkscape-font-specification:Norwester-Regular;writing-mode:lr-tb;fill:#17a7b7;fill-opacity:1;fill-rule:nonzero;stroke:none"
       id="text3736">
      <path
         d="m -247.94002,499.4574 c 0,0.495 0.225,0.72 0.72,0.72 l 10.8,0 c 4.23,0 6.48,-2.25 6.48,-6.48 l 0,-18.495 c 0,-4.23 -2.25,-6.525 -6.48,-6.525 l -10.8,0 c -0.495,0 -0.72,0.27 -0.72,0.72 l 0,30.06 z m 6.12,-5.22 0,-19.62 4.14,0 c 1.17,0 1.8,0.63 1.8,1.845 l 0,15.975 c 0,1.215 -0.63,1.8 -1.8,1.8 l -4.14,0 z"
         style=""
         id="path3497" />
      <path
         d="m -204.65,500.1774 c 0.54,0 0.765,-0.27 0.63,-0.765 l -7.47,-30.105 c -0.09,-0.45 -0.36,-0.63 -0.765,-0.63 l -6.255,0 c -0.405,0 -0.675,0.18 -0.765,0.63 l -7.47,30.105 c -0.135,0.495 0.09,0.765 0.585,0.765 l 4.41,0 c 0.405,0 0.63,-0.225 0.72,-0.63 l 1.395,-5.67 8.46,0 1.44,5.67 c 0.09,0.405 0.315,0.63 0.72,0.63 l 4.365,0 z m -7.92,-11.52 -5.67,0 2.835,-12.24 2.835,12.24 z"
         style=""
         id="path3499" />
      <path
         d="m -187.59499,468.6774 c 0.495,0 0.72,0.27 0.72,0.72 l 0,4.5 c 0,0.45 -0.225,0.72 -0.72,0.72 l -5.22,0 0,24.84 c 0,0.495 -0.225,0.72 -0.72,0.72 l -4.68,0 c -0.45,0 -0.72,-0.225 -0.72,-0.72 l 0,-24.84 -5.22,0 c -0.45,0 -0.72,-0.27 -0.72,-0.72 l 0,-4.5 c 0,-0.45 0.27,-0.72 0.72,-0.72 l 16.56,0 z"
         style=""
         id="path3501" />
      <path
         d="m -183.72499,493.6974 c 0,4.23 2.25,6.48 6.48,6.48 l 5.04,0 c 4.23,0 6.48,-2.25 6.48,-6.48 l 0,-18.54 c 0,-4.23 -2.25,-6.48 -6.48,-6.48 l -5.04,0 c -4.23,0 -6.48,2.25 -6.48,6.48 l 0,18.54 z m 7.65,0.675 c -1.17,0 -1.8,-0.585 -1.8,-1.8 l 0,-16.29 c 0,-1.17 0.63,-1.8 1.8,-1.8 l 2.88,0 c 1.17,0 1.8,0.63 1.8,1.8 l 0,16.29 c 0,1.215 -0.63,1.8 -1.8,1.8 l -2.88,0 z"
         style=""
         id="path3503" />
      <path
         d="m -154.74499,468.6774 c -4.185,0 -6.48,2.25 -6.48,6.48 l 0,7.785 c 0,0.855 0.405,1.395 1.215,1.665 l 10.8,3.51 0,4.545 c 0,1.215 -0.63,1.8 -1.8,1.8 l -2.43,0 c -1.125,0 -1.8,-0.585 -1.8,-1.8 l 0,-1.89 c 0,-0.495 -0.225,-0.72 -0.72,-0.72 l -4.545,0 c -0.45,0 -0.72,0.225 -0.72,0.72 l 0,2.925 c 0,4.23 2.295,6.48 6.48,6.48 l 5.04,0 c 4.23,0 6.48,-2.25 6.48,-6.48 l 0,-8.46 c 0,-0.855 -0.405,-1.395 -1.17,-1.665 l -10.89,-3.51 0,-3.825 c 0,-1.17 0.675,-1.8 1.8,-1.8 l 2.475,0 c 1.215,0 1.8,0.63 1.8,1.8 l 0,1.89 c 0,0.45 0.27,0.72 0.72,0.72 l 4.545,0 c 0.495,0 0.72,-0.27 0.72,-0.72 l 0,-2.97 c 0,-4.23 -2.25,-6.48 -6.48,-6.48 l -5.04,0 z"
         style=""
         id="path3505" />
      <path
         d="m -111.81499,468.6774 c -0.54,0 -0.855,0.27 -1.035,0.72 l -5.04,11.565 -5.04,-11.565 c -0.18,-0.45 -0.495,-0.72 -1.035,-0.72 l -4.5,0 c -0.675,0 -0.99,0.45 -0.72,1.035 l 8.235,18.675 0,10.89 c 0,0.585 0.315,0.9 0.9,0.9 l 4.32,0 c 0.585,0 0.9,-0.315 0.9,-0.9 l 0,-10.89 8.235,-18.675 c 0.27,-0.585 -0.045,-1.035 -0.72,-1.035 l -4.5,0 z"
         style=""
         id="path3507" />
      <path
         d="m -74.510008,475.1574 c 0,-4.23 -2.295,-6.48 -6.48,-6.48 l -5.04,0 c -4.23,0 -6.525,2.25 -6.525,6.48 l 0,18.54 c 0,4.23 2.295,6.48 6.525,6.48 l 5.04,0 c 4.185,0 6.48,-2.25 6.48,-6.48 l 0,-4.86 c 0,-0.45 -0.27,-0.72 -0.72,-0.72 l -4.23,0 c -0.495,0 -0.72,0.27 -0.72,0.72 l 0,3.825 c 0,1.215 -0.63,1.8 -1.8,1.8 l -2.88,0 c -1.17,0 -1.8,-0.585 -1.8,-1.8 l 0,-16.335 c 0,-1.17 0.585,-1.8 1.8,-1.8 l 2.88,0 c 1.17,0 1.8,0.63 1.8,1.8 l 0,3.69 c 0,0.45 0.225,0.72 0.72,0.72 l 4.23,0 c 0.45,0 0.72,-0.27 0.72,-0.72 l 0,-4.86 z"
         style=""
         id="path3509" />
      <path
         d="m -70.01001,493.6974 c 0,4.23 2.25,6.48 6.48,6.48 l 5.04,0 c 4.23,0 6.48,-2.25 6.48,-6.48 l 0,-18.54 c 0,-4.23 -2.25,-6.48 -6.48,-6.48 l -5.04,0 c -4.23,0 -6.48,2.25 -6.48,6.48 l 0,18.54 z m 7.65,0.675 c -1.17,0 -1.8,-0.585 -1.8,-1.8 l 0,-16.29 c 0,-1.17 0.63,-1.8 1.8,-1.8 l 2.88,0 c 1.17,0 1.8,0.63 1.8,1.8 l 0,16.29 c 0,1.215 -0.63,1.8 -1.8,1.8 l -2.88,0 z"
         style=""
         id="path3511" />
      <path
         d="m -47.510006,499.4574 c 0,0.495 0.225,0.72 0.72,0.72 l 10.8,0 c 4.23,0 6.48,-2.25 6.48,-6.48 l 0,-18.495 c 0,-4.23 -2.25,-6.525 -6.48,-6.525 l -10.8,0 c -0.495,0 -0.72,0.27 -0.72,0.72 l 0,30.06 z m 6.12,-5.22 0,-19.62 4.14,0 c 1.17,0 1.8,0.63 1.8,1.845 l 0,15.975 c 0,1.215 -0.63,1.8 -1.8,1.8 l -4.14,0 z"
         style=""
         id="path3513" />
      <path
         d="m -24.290008,500.1774 c -0.495,0 -0.72,-0.27 -0.72,-0.72 l 0,-30.06 c 0,-0.45 0.225,-0.72 0.72,-0.72 l 4.68,0 c 0.45,0 0.72,0.27 0.72,0.72 l 0,30.06 c 0,0.45 -0.27,0.72 -0.72,0.72 l -4.68,0 z"
         style=""
         id="path3515" />
      <path
         d="m -14.390013,493.6974 c 0,4.23 2.25,6.48 6.4800003,6.48 l 5.04,0 c 4.185,0 6.48,-2.25 6.48,-6.48 l 0,-10.26 c 0,-0.495 -0.27,-0.72 -0.72,-0.72 l -7.29,0 c -0.495,0 -0.72,0.225 -0.72,0.72 l 0,4.5 c 0,0.45 0.225,0.72 0.72,0.72 l 2.34,0 0,3.915 c 0,1.215 -0.63,1.8 -1.8,1.8 l -2.88,0 c -1.17,0 -1.8,-0.585 -1.8,-1.8 l 0,-16.29 c 0,-1.17 0.585,-1.8 1.8,-1.8 l 2.88,0 c 1.17,0 1.8,0.63 1.8,1.8 l 0,2.205 c 0,0.45 0.225,0.72 0.72,0.72 l 4.23,0 c 0.45,0 0.72,-0.27 0.72,-0.72 l 0,-3.33 c 0,-4.23 -2.295,-6.48 -6.48,-6.48 l -5.04,0 c -4.2300003,0 -6.4800003,2.25 -6.4800003,6.48 l 0,18.54 z"
         style=""
         id="path3517" />
      <path
         d="m 8.1099877,493.6974 c 0,4.23 2.2500003,6.48 6.4800003,6.48 l 5.04,0 c 4.23,0 6.48,-2.25 6.48,-6.48 l 0,-18.54 c 0,-4.23 -2.25,-6.48 -6.48,-6.48 l -5.04,0 c -4.23,0 -6.4800003,2.25 -6.4800003,6.48 l 0,18.54 z m 7.6500003,0.675 c -1.17,0 -1.8,-0.585 -1.8,-1.8 l 0,-16.29 c 0,-1.17 0.63,-1.8 1.8,-1.8 l 2.88,0 c 1.17,0 1.8,0.63 1.8,1.8 l 0,16.29 c 0,1.215 -0.63,1.8 -1.8,1.8 l -2.88,0 z"
         style=""
         id="path3519" />
      <path
         d="m 41.859997,499.4574 c 0,0.45 0.27,0.72 0.72,0.72 l 4.41,0.045 c 0.495,0 0.72,-0.27 0.72,-0.72 l 0,-9 5.67,-0.045 c 4.23,-0.045 6.48,-2.295 6.48,-6.48 l 0,-8.82 c 0,-4.23 -2.25,-6.48 -6.48,-6.48 l -10.8,0 c -0.45,0 -0.72,0.27 -0.72,0.72 l 0,30.06 z m 5.85,-14.76 0,-10.17 4.5,-0.045 c 1.215,0 1.8,0.63 1.8,1.8 l 0,6.57 c 0,1.125 -0.585,1.8 -1.8,1.8 l -4.5,0.045 z"
         style=""
         id="path3521" />
      <path
         d="m 82.000006,500.1774 c 0.54,0 0.765,-0.27 0.63,-0.765 l -7.47,-30.105 c -0.09,-0.45 -0.36,-0.63 -0.765,-0.63 l -6.255,0 c -0.405,0 -0.675,0.18 -0.765,0.63 l -7.47,30.105 c -0.135,0.495 0.09,0.765 0.585,0.765 l 4.41,0 c 0.405,0 0.63,-0.225 0.72,-0.63 l 1.395,-5.67 8.46,0 1.44,5.67 c 0.09,0.405 0.315,0.63 0.72,0.63 l 4.365,0 z m -7.92,-11.52 -5.67,0 2.835,-12.24 2.835,12.24 z"
         style=""
         id="path3523" />
      <path
         d="m 103.82499,475.1574 c 0,-4.23 -2.25,-6.48 -6.480001,-6.48 l -10.8,0 c -0.45,0 -0.72,0.27 -0.72,0.72 l 0,30.06 c 0,0.45 0.27,0.72 0.72,0.72 l 4.41,0 c 0.45,0 0.72,-0.27 0.72,-0.72 l 0,-8.775 4.005,0 2.16,8.865 c 0.09,0.405 0.315,0.63 0.765,0.63 l 4.410001,0 c 0.495,0 0.765,-0.27 0.63,-0.81 l -2.34,-9.675 c 1.665,-1.035 2.52,-2.88 2.52,-5.49 l 0,-9.045 z m -12.150001,9.72 0,-10.395 4.5,0 c 1.17,0 1.8,0.63 1.8,1.8 l 0,6.795 c 0,1.17 -0.63,1.8 -1.8,1.8 l -4.5,0 z"
         style=""
         id="path3525" />
      <path
         d="m 128.66499,500.1774 c 0.54,0 0.765,-0.27 0.63,-0.765 l -7.47,-30.105 c -0.09,-0.45 -0.36,-0.63 -0.765,-0.63 l -6.255,0 c -0.405,0 -0.675,0.18 -0.765,0.63 l -7.47,30.105 c -0.135,0.495 0.09,0.765 0.585,0.765 l 4.41,0 c 0.405,0 0.63,-0.225 0.72,-0.63 l 1.395,-5.67 8.46,0 1.44,5.67 c 0.09,0.405 0.315,0.63 0.72,0.63 l 4.365,0 z m -7.92,-11.52 -5.67,0 2.835,-12.24 2.835,12.24 z"
         style=""
         id="path3527" />
      <path
         d="m 162.19002,475.1574 c 0,-4.23 -2.25,-6.48 -6.48,-6.48 l -10.8,0 c -0.45,0 -0.72,0.27 -0.72,0.72 l 0,30.06 c 0,0.45 0.27,0.72 0.72,0.72 l 4.41,0 c 0.45,0 0.72,-0.27 0.72,-0.72 l 0,-8.775 4.005,0 2.16,8.865 c 0.09,0.405 0.315,0.63 0.765,0.63 l 4.41,0 c 0.495,0 0.765,-0.27 0.63,-0.81 l -2.34,-9.675 c 1.665,-1.035 2.52,-2.88 2.52,-5.49 l 0,-9.045 z m -12.15,9.72 0,-10.395 4.5,0 c 1.17,0 1.8,0.63 1.8,1.8 l 0,6.795 c 0,1.17 -0.63,1.8 -1.8,1.8 l -4.5,0 z"
         style=""
         id="path3529" />
      <path
         d="m 184.64502,469.3974 c 0,-0.45 -0.18,-0.72 -0.72,-0.72 l -16.56,0 c -0.405,0 -0.675,0.27 -0.675,0.72 l 0,30.06 c 0,0.45 0.27,0.72 0.675,0.72 l 16.56,0 c 0.54,0 0.72,-0.27 0.72,-0.72 l 0,-4.5 c 0,-0.495 -0.18,-0.72 -0.72,-0.72 l -11.115,0 0,-6.66 8.46,0 c 0.45,0 0.72,-0.27 0.72,-0.765 l 0,-4.455 c 0,-0.495 -0.27,-0.765 -0.72,-0.765 l -8.46,0 0,-6.93 11.115,0 c 0.54,0 0.72,-0.315 0.72,-0.765 l 0,-4.5 z"
         style=""
         id="path3531" />
      <path
         d="m 194.27501,468.6774 c -4.185,0 -6.48,2.25 -6.48,6.48 l 0,7.785 c 0,0.855 0.405,1.395 1.215,1.665 l 10.8,3.51 0,4.545 c 0,1.215 -0.63,1.8 -1.8,1.8 l -2.43,0 c -1.125,0 -1.8,-0.585 -1.8,-1.8 l 0,-1.89 c 0,-0.495 -0.225,-0.72 -0.72,-0.72 l -4.545,0 c -0.45,0 -0.72,0.225 -0.72,0.72 l 0,2.925 c 0,4.23 2.295,6.48 6.48,6.48 l 5.04,0 c 4.23,0 6.48,-2.25 6.48,-6.48 l 0,-8.46 c 0,-0.855 -0.405,-1.395 -1.17,-1.665 l -10.89,-3.51 0,-3.825 c 0,-1.17 0.675,-1.8 1.8,-1.8 l 2.475,0 c 1.215,0 1.8,0.63 1.8,1.8 l 0,1.89 c 0,0.45 0.27,0.72 0.72,0.72 l 4.545,0 c 0.495,0 0.72,-0.27 0.72,-0.72 l 0,-2.97 c 0,-4.23 -2.25,-6.48 -6.48,-6.48 l -5.04,0 z"
         style=""
         id="path3533" />
      <path
         d="m 210.29501,493.6974 c 0,4.23 2.25,6.48 6.48,6.48 l 5.04,0 c 4.23,0 6.48,-2.25 6.48,-6.48 l 0,-18.54 c 0,-4.23 -2.25,-6.48 -6.48,-6.48 l -5.04,0 c -4.23,0 -6.48,2.25 -6.48,6.48 l 0,18.54 z m 7.65,0.675 c -1.17,0 -1.8,-0.585 -1.8,-1.8 l 0,-16.29 c 0,-1.17 0.63,-1.8 1.8,-1.8 l 2.88,0 c 1.17,0 1.8,0.63 1.8,1.8 l 0,16.29 c 0,1.215 -0.63,1.8 -1.8,1.8 l -2.88,0 z"
         style=""
         id="path3535" />
      <path
         d="m 238.91501,494.2374 8.91,0 c 0.495,0 0.72,0.27 0.72,0.72 l 0,4.5 c 0,0.495 -0.225,0.72 -0.72,0.72 l -14.31,0 c -0.45,0 -0.72,-0.225 -0.72,-0.72 l 0,-30.06 c 0,-0.45 0.27,-0.72 0.72,-0.72 l 4.68,0 c 0.495,0 0.72,0.27 0.72,0.72 l 0,24.84 z"
         style=""
         id="path3537" />
      <path
         d="m 262.62999,468.6774 c -0.54,0 -0.855,0.27 -0.99,0.81 l -4.5,20.34 -4.455,-20.34 c -0.135,-0.54 -0.45,-0.81 -0.99,-0.81 l -4.095,0 c -0.675,0 -0.945,0.36 -0.81,0.99 l 7.11,29.7 c 0.135,0.54 0.45,0.81 0.99,0.81 l 4.5,0 c 0.54,0 0.855,-0.27 0.99,-0.81 l 7.155,-29.7 c 0.135,-0.63 -0.135,-0.99 -0.81,-0.99 l -4.095,0 z"
         style=""
         id="path3539" />
      <path
         d="m 288.68501,469.3974 c 0,-0.45 -0.18,-0.72 -0.72,-0.72 l -16.56,0 c -0.405,0 -0.675,0.27 -0.675,0.72 l 0,30.06 c 0,0.45 0.27,0.72 0.675,0.72 l 16.56,0 c 0.54,0 0.72,-0.27 0.72,-0.72 l 0,-4.5 c 0,-0.495 -0.18,-0.72 -0.72,-0.72 l -11.115,0 0,-6.66 8.46,0 c 0.45,0 0.72,-0.27 0.72,-0.765 l 0,-4.455 c 0,-0.495 -0.27,-0.765 -0.72,-0.765 l -8.46,0 0,-6.93 11.115,0 c 0.54,0 0.72,-0.315 0.72,-0.765 l 0,-4.5 z"
         style=""
         id="path3541" />
      <path
         d="m 310.73502,475.1574 c 0,-4.23 -2.25,-6.48 -6.48,-6.48 l -10.8,0 c -0.45,0 -0.72,0.27 -0.72,0.72 l 0,30.06 c 0,0.45 0.27,0.72 0.72,0.72 l 4.41,0 c 0.45,0 0.72,-0.27 0.72,-0.72 l 0,-8.775 4.005,0 2.16,8.865 c 0.09,0.405 0.315,0.63 0.765,0.63 l 4.41,0 c 0.495,0 0.765,-0.27 0.63,-0.81 l -2.34,-9.675 c 1.665,-1.035 2.52,-2.88 2.52,-5.49 l 0,-9.045 z m -12.15,9.72 0,-10.395 4.5,0 c 1.17,0 1.8,0.63 1.8,1.8 l 0,6.795 c 0,1.17 -0.63,1.8 -1.8,1.8 l -4.5,0 z"
         style=""
         id="path3543" />
      <path
         d="m 326.48502,499.4574 c 0,0.45 0.27,0.72 0.72,0.72 l 4.41,0.045 c 0.495,0 0.72,-0.27 0.72,-0.72 l 0,-9 5.67,-0.045 c 4.23,-0.045 6.48,-2.295 6.48,-6.48 l 0,-8.82 c 0,-4.23 -2.25,-6.48 -6.48,-6.48 l -10.8,0 c -0.45,0 -0.72,0.27 -0.72,0.72 l 0,30.06 z m 5.85,-14.76 0,-10.17 4.5,-0.045 c 1.215,0 1.8,0.63 1.8,1.8 l 0,6.57 c 0,1.125 -0.585,1.8 -1.8,1.8 l -4.5,0.045 z"
         style=""
         id="path3545" />
      <path
         d="m 366.98502,475.1574 c 0,-4.23 -2.25,-6.48 -6.48,-6.48 l -10.8,0 c -0.45,0 -0.72,0.27 -0.72,0.72 l 0,30.06 c 0,0.45 0.27,0.72 0.72,0.72 l 4.41,0 c 0.45,0 0.72,-0.27 0.72,-0.72 l 0,-8.775 4.005,0 2.16,8.865 c 0.09,0.405 0.315,0.63 0.765,0.63 l 4.41,0 c 0.495,0 0.765,-0.27 0.63,-0.81 l -2.34,-9.675 c 1.665,-1.035 2.52,-2.88 2.52,-5.49 l 0,-9.045 z m -12.15,9.72 0,-10.395 4.5,0 c 1.17,0 1.8,0.63 1.8,1.8 l 0,6.795 c 0,1.17 -0.63,1.8 -1.8,1.8 l -4.5,0 z"
         style=""
         id="path3547" />
      <path
         d="m 371.48502,493.6974 c 0,4.23 2.25,6.48 6.48,6.48 l 5.04,0 c 4.23,0 6.48,-2.25 6.48,-6.48 l 0,-18.54 c 0,-4.23 -2.25,-6.48 -6.48,-6.48 l -5.04,0 c -4.23,0 -6.48,2.25 -6.48,6.48 l 0,18.54 z m 7.65,0.675 c -1.17,0 -1.8,-0.585 -1.8,-1.8 l 0,-16.29 c 0,-1.17 0.63,-1.8 1.8,-1.8 l 2.88,0 c 1.17,0 1.8,0.63 1.8,1.8 l 0,16.29 c 0,1.215 -0.63,1.8 -1.8,1.8 l -2.88,0 z"
         style=""
         id="path3549" />
      <path
         d="m 412.02999,475.1574 c 0,-4.23 -2.295,-6.48 -6.525,-6.48 l -10.8,0 c -0.45,0 -0.72,0.225 -0.72,0.72 l 0,30.06 c 0,0.45 0.27,0.72 0.72,0.72 l 10.8,0 c 4.23,0 6.525,-2.25 6.525,-6.48 l 0,-5.985 c 0,-1.665 -1.215,-2.925 -2.835,-3.195 l 0,-0.09 c 1.62,-0.27 2.835,-1.53 2.835,-3.195 l 0,-6.075 z m -5.715,4.59 c 0,1.125 -0.63,1.755 -1.8,1.755 l -4.95,0 0,-7.155 4.95,0 c 1.215,0 1.8,0.63 1.8,1.8 l 0,3.6 z m 0,12.96 c 0,1.215 -0.63,1.8 -1.8,1.8 l -4.95,0 0,-7.065 4.95,0 c 1.215,0 1.8,0.63 1.8,1.8 l 0,3.465 z"
         style=""
         id="path3551" />
      <path
         d="m 422.65,494.2374 8.91,0 c 0.495,0 0.72,0.27 0.72,0.72 l 0,4.5 c 0,0.495 -0.225,0.72 -0.72,0.72 l -14.31,0 c -0.45,0 -0.72,-0.225 -0.72,-0.72 l 0,-30.06 c 0,-0.45 0.27,-0.72 0.72,-0.72 l 4.68,0 c 0.495,0 0.72,0.27 0.72,0.72 l 0,24.84 z"
         style=""
         id="path3553" />
      <path
         d="m 454.28502,469.3974 c 0,-0.45 -0.18,-0.72 -0.72,-0.72 l -16.56,0 c -0.405,0 -0.675,0.27 -0.675,0.72 l 0,30.06 c 0,0.45 0.27,0.72 0.675,0.72 l 16.56,0 c 0.54,0 0.72,-0.27 0.72,-0.72 l 0,-4.5 c 0,-0.495 -0.18,-0.72 -0.72,-0.72 l -11.115,0 0,-6.66 8.46,0 c 0.45,0 0.72,-0.27 0.72,-0.765 l 0,-4.455 c 0,-0.495 -0.27,-0.765 -0.72,-0.765 l -8.46,0 0,-6.93 11.115,0 c 0.54,0 0.72,-0.315 0.72,-0.765 l 0,-4.5 z"
         style=""
         id="path3555" />
      <path
         d="m 477.595,468.6774 c -0.54,0 -0.855,0.27 -0.99,0.765 l -4.995,20.07 -4.995,-20.07 c -0.135,-0.495 -0.45,-0.765 -0.99,-0.765 l -5.94,0 c -0.585,0 -0.9,0.315 -0.9,0.9 l 0,29.7 c 0,0.585 0.315,0.9 0.9,0.9 l 4.14,0 c 0.585,0 0.9,-0.315 0.9,-0.9 l 0,-17.685 0.315,0 4.23,17.82 c 0.135,0.495 0.45,0.765 0.99,0.765 l 2.655,0 c 0.54,0 0.855,-0.27 0.99,-0.765 l 4.23,-17.82 0.315,0 0,17.685 c 0,0.585 0.315,0.9 0.9,0.9 l 4.185,0 c 0.585,0 0.9,-0.315 0.9,-0.9 l 0,-29.7 c 0,-0.585 -0.315,-0.9 -0.9,-0.9 l -5.94,0 z"
         style=""
         id="path3557" />
      <path
         d="m 509.72502,500.1774 c 0.54,0 0.765,-0.27 0.63,-0.765 l -7.47,-30.105 c -0.09,-0.45 -0.36,-0.63 -0.765,-0.63 l -6.255,0 c -0.405,0 -0.675,0.18 -0.765,0.63 l -7.47,30.105 c -0.135,0.495 0.09,0.765 0.585,0.765 l 4.41,0 c 0.405,0 0.63,-0.225 0.72,-0.63 l 1.395,-5.67 8.46,0 1.44,5.67 c 0.09,0.405 0.315,0.63 0.72,0.63 l 4.365,0 z m -7.92,-11.52 -5.67,0 2.835,-12.24 2.835,12.24 z"
         style=""
         id="path3559" />
      <path
         d="m 519.12999,468.6774 c -4.185,0 -6.48,2.25 -6.48,6.48 l 0,7.785 c 0,0.855 0.405,1.395 1.215,1.665 l 10.8,3.51 0,4.545 c 0,1.215 -0.63,1.8 -1.8,1.8 l -2.43,0 c -1.125,0 -1.8,-0.585 -1.8,-1.8 l 0,-1.89 c 0,-0.495 -0.225,-0.72 -0.72,-0.72 l -4.545,0 c -0.45,0 -0.72,0.225 -0.72,0.72 l 0,2.925 c 0,4.23 2.295,6.48 6.48,6.48 l 5.04,0 c 4.23,0 6.48,-2.25 6.48,-6.48 l 0,-8.46 c 0,-0.855 -0.405,-1.395 -1.17,-1.665 l -10.89,-3.51 0,-3.825 c 0,-1.17 0.675,-1.8 1.8,-1.8 l 2.475,0 c 1.215,0 1.8,0.63 1.8,1.8 l 0,1.89 c 0,0.45 0.27,0.72 0.72,0.72 l 4.545,0 c 0.495,0 0.72,-0.27 0.72,-0.72 l 0,-2.97 c 0,-4.23 -2.25,-6.48 -6.48,-6.48 l -5.04,0 z"
         style=""
         id="path3561" />
      <path
         d="m 546.39996,499.4574 c 0,0.495 0.225,0.72 0.72,0.72 l 10.8,0 c 4.23,0 6.48,-2.25 6.48,-6.48 l 0,-18.495 c 0,-4.23 -2.25,-6.525 -6.48,-6.525 l -10.8,0 c -0.495,0 -0.72,0.27 -0.72,0.72 l 0,30.06 z m 6.12,-5.22 0,-19.62 4.14,0 c 1.17,0 1.8,0.63 1.8,1.845 l 0,15.975 c 0,1.215 -0.63,1.8 -1.8,1.8 l -4.14,0 z"
         style=""
         id="path3563" />
      <path
         d="m 586.85496,469.3974 c 0,-0.45 -0.18,-0.72 -0.72,-0.72 l -16.56,0 c -0.405,0 -0.675,0.27 -0.675,0.72 l 0,30.06 c 0,0.45 0.27,0.72 0.675,0.72 l 16.56,0 c 0.54,0 0.72,-0.27 0.72,-0.72 l 0,-4.5 c 0,-0.495 -0.18,-0.72 -0.72,-0.72 l -11.115,0 0,-6.66 8.46,0 c 0.45,0 0.72,-0.27 0.72,-0.765 l 0,-4.455 c 0,-0.495 -0.27,-0.765 -0.72,-0.765 l -8.46,0 0,-6.93 11.115,0 c 0.54,0 0.72,-0.315 0.72,-0.765 l 0,-4.5 z"
         style=""
         id="path3565" />
      <path
         d="m 616.86998,468.6774 c -0.495,0 -0.72,0.27 -0.72,0.72 l 0,17.055 -8.46,-17.19 c -0.18,-0.405 -0.405,-0.585 -0.81,-0.585 l -3.555,0 c -0.45,0 -0.72,0.27 -0.72,0.72 l 0,30.06 c 0,0.45 0.27,0.72 0.72,0.72 l 4.23,0 c 0.495,0 0.72,-0.27 0.72,-0.72 l 0,-17.055 8.46,17.19 c 0.18,0.405 0.405,0.585 0.81,0.585 l 3.555,0 c 0.45,0 0.72,-0.27 0.72,-0.72 l 0,-30.06 c 0,-0.45 -0.27,-0.72 -0.72,-0.72 l -4.23,0 z"
         style=""
         id="path3567" />
      <path
         d="m 639.28001,468.6774 c -0.495,0 -0.9,0.405 -0.9,0.9 l 0,22.86 c 0,1.215 -0.63,1.8 -1.8,1.8 l -2.34,0 c -1.17,0 -1.8,-0.585 -1.8,-1.8 l 0,-22.86 c 0,-0.495 -0.405,-0.9 -0.9,-0.9 l -4.32,0 c -0.495,0 -0.9,0.405 -0.9,0.9 l 0,24.12 c 0,4.23 2.25,6.48 6.48,6.48 l 5.04,0 c 4.23,0 6.48,-2.25 6.48,-6.48 l 0,-24.12 c 0,-0.495 -0.405,-0.9 -0.9,-0.9 l -4.14,0 z"
         style=""
         id="path3569" />
      <path
         d="m 666.77501,469.3974 c 0,-0.45 -0.18,-0.72 -0.72,-0.72 l -16.56,0 c -0.405,0 -0.675,0.27 -0.675,0.72 l 0,30.06 c 0,0.45 0.27,0.72 0.675,0.72 l 16.56,0 c 0.54,0 0.72,-0.27 0.72,-0.72 l 0,-4.5 c 0,-0.495 -0.18,-0.72 -0.72,-0.72 l -11.115,0 0,-6.66 8.46,0 c 0.45,0 0.72,-0.27 0.72,-0.765 l 0,-4.455 c 0,-0.495 -0.27,-0.765 -0.72,-0.765 l -8.46,0 0,-6.93 11.115,0 c 0.54,0 0.72,-0.315 0.72,-0.765 l 0,-4.5 z"
         style=""
         id="path3571" />
      <path
         d="m 676.40499,468.6774 c -4.185,0 -6.48,2.25 -6.48,6.48 l 0,7.785 c 0,0.855 0.405,1.395 1.215,1.665 l 10.8,3.51 0,4.545 c 0,1.215 -0.63,1.8 -1.8,1.8 l -2.43,0 c -1.125,0 -1.8,-0.585 -1.8,-1.8 l 0,-1.89 c 0,-0.495 -0.225,-0.72 -0.72,-0.72 l -4.545,0 c -0.45,0 -0.72,0.225 -0.72,0.72 l 0,2.925 c 0,4.23 2.295,6.48 6.48,6.48 l 5.04,0 c 4.23,0 6.48,-2.25 6.48,-6.48 l 0,-8.46 c 0,-0.855 -0.405,-1.395 -1.17,-1.665 l -10.89,-3.51 0,-3.825 c 0,-1.17 0.675,-1.8 1.8,-1.8 l 2.475,0 c 1.215,0 1.8,0.63 1.8,1.8 l 0,1.89 c 0,0.45 0.27,0.72 0.72,0.72 l 4.545,0 c 0.495,0 0.72,-0.27 0.72,-0.72 l 0,-2.97 c 0,-4.23 -2.25,-6.48 -6.48,-6.48 l -5.04,0 z"
         style=""
         id="path3573" />
      <path
         d="m 707.45495,468.6774 c 0.495,0 0.72,0.27 0.72,0.72 l 0,4.5 c 0,0.45 -0.225,0.72 -0.72,0.72 l -5.22,0 0,24.84 c 0,0.495 -0.225,0.72 -0.72,0.72 l -4.68,0 c -0.45,0 -0.72,-0.225 -0.72,-0.72 l 0,-24.84 -5.22,0 c -0.45,0 -0.72,-0.27 -0.72,-0.72 l 0,-4.5 c 0,-0.45 0.27,-0.72 0.72,-0.72 l 16.56,0 z"
         style=""
         id="path3575" />
      <path
         d="m 729.77496,475.1574 c 0,-4.23 -2.25,-6.48 -6.48,-6.48 l -10.8,0 c -0.45,0 -0.72,0.27 -0.72,0.72 l 0,30.06 c 0,0.45 0.27,0.72 0.72,0.72 l 4.41,0 c 0.45,0 0.72,-0.27 0.72,-0.72 l 0,-8.775 4.005,0 2.16,8.865 c 0.09,0.405 0.315,0.63 0.765,0.63 l 4.41,0 c 0.495,0 0.765,-0.27 0.63,-0.81 l -2.34,-9.675 c 1.665,-1.035 2.52,-2.88 2.52,-5.49 l 0,-9.045 z m -12.15,9.72 0,-10.395 4.5,0 c 1.17,0 1.8,0.63 1.8,1.8 l 0,6.795 c 0,1.17 -0.63,1.8 -1.8,1.8 l -4.5,0 z"
         style=""
         id="path3577" />
      <path
         d="m 754.615,500.1774 c 0.54,0 0.765,-0.27 0.63,-0.765 l -7.47,-30.105 c -0.09,-0.45 -0.36,-0.63 -0.765,-0.63 l -6.255,0 c -0.405,0 -0.675,0.18 -0.765,0.63 l -7.47,30.105 c -0.135,0.495 0.09,0.765 0.585,0.765 l 4.41,0 c 0.405,0 0.63,-0.225 0.72,-0.63 l 1.395,-5.67 8.46,0 1.44,5.67 c 0.09,0.405 0.315,0.63 0.72,0.63 l 4.365,0 z m -7.92,-11.52 -5.67,0 2.835,-12.24 2.835,12.24 z"
         style=""
         id="path3579" />
      <path
         d="m 788.18495,475.1574 c 0,-4.23 -2.295,-6.48 -6.48,-6.48 l -5.04,0 c -4.23,0 -6.525,2.25 -6.525,6.48 l 0,18.54 c 0,4.23 2.295,6.48 6.525,6.48 l 5.04,0 c 4.185,0 6.48,-2.25 6.48,-6.48 l 0,-4.86 c 0,-0.45 -0.27,-0.72 -0.72,-0.72 l -4.23,0 c -0.495,0 -0.72,0.27 -0.72,0.72 l 0,3.825 c 0,1.215 -0.63,1.8 -1.8,1.8 l -2.88,0 c -1.17,0 -1.8,-0.585 -1.8,-1.8 l 0,-16.335 c 0,-1.17 0.585,-1.8 1.8,-1.8 l 2.88,0 c 1.17,0 1.8,0.63 1.8,1.8 l 0,3.69 c 0,0.45 0.225,0.72 0.72,0.72 l 4.23,0 c 0.45,0 0.72,-0.27 0.72,-0.72 l 0,-4.86 z"
         style=""
         id="path3581" />
      <path
         d="m 792.685,493.6974 c 0,4.23 2.25,6.48 6.48,6.48 l 5.04,0 c 4.23,0 6.48,-2.25 6.48,-6.48 l 0,-18.54 c 0,-4.23 -2.25,-6.48 -6.48,-6.48 l -5.04,0 c -4.23,0 -6.48,2.25 -6.48,6.48 l 0,18.54 z m 7.65,0.675 c -1.17,0 -1.8,-0.585 -1.8,-1.8 l 0,-16.29 c 0,-1.17 0.63,-1.8 1.8,-1.8 l 2.88,0 c 1.17,0 1.8,0.63 1.8,1.8 l 0,16.29 c 0,1.215 -0.63,1.8 -1.8,1.8 l -2.88,0 z"
         style=""
         id="path3583" />
      <path
         d="m 833.995,468.6774 c -0.54,0 -0.855,0.27 -0.99,0.765 l -4.995,20.07 -4.995,-20.07 c -0.135,-0.495 -0.45,-0.765 -0.99,-0.765 l -5.94,0 c -0.585,0 -0.9,0.315 -0.9,0.9 l 0,29.7 c 0,0.585 0.315,0.9 0.9,0.9 l 4.14,0 c 0.585,0 0.9,-0.315 0.9,-0.9 l 0,-17.685 0.315,0 4.23,17.82 c 0.135,0.495 0.45,0.765 0.99,0.765 l 2.655,0 c 0.54,0 0.855,-0.27 0.99,-0.765 l 4.23,-17.82 0.315,0 0,17.685 c 0,0.585 0.315,0.9 0.9,0.9 l 4.185,0 c 0.585,0 0.9,-0.315 0.9,-0.9 l 0,-29.7 c 0,-0.585 -0.315,-0.9 -0.9,-0.9 l -5.94,0 z"
         style=""
         id="path3585" />
      <path
         d="m 858.29496,468.6774 c -0.495,0 -0.9,0.405 -0.9,0.9 l 0,22.86 c 0,1.215 -0.63,1.8 -1.8,1.8 l -2.34,0 c -1.17,0 -1.8,-0.585 -1.8,-1.8 l 0,-22.86 c 0,-0.495 -0.405,-0.9 -0.9,-0.9 l -4.32,0 c -0.495,0 -0.9,0.405 -0.9,0.9 l 0,24.12 c 0,4.23 2.25,6.48 6.48,6.48 l 5.04,0 c 4.23,0 6.48,-2.25 6.48,-6.48 l 0,-24.12 c 0,-0.495 -0.405,-0.9 -0.9,-0.9 l -4.14,0 z"
         style=""
         id="path3587" />
      <path
         d="m 882.09996,468.6774 c -0.495,0 -0.72,0.27 -0.72,0.72 l 0,17.055 -8.46,-17.19 c -0.18,-0.405 -0.405,-0.585 -0.81,-0.585 l -3.555,0 c -0.45,0 -0.72,0.27 -0.72,0.72 l 0,30.06 c 0,0.45 0.27,0.72 0.72,0.72 l 4.23,0 c 0.495,0 0.72,-0.27 0.72,-0.72 l 0,-17.055 8.46,17.19 c 0.18,0.405 0.405,0.585 0.81,0.585 l 3.555,0 c 0.45,0 0.72,-0.27 0.72,-0.72 l 0,-30.06 c 0,-0.45 -0.27,-0.72 -0.72,-0.72 l -4.23,0 z"
         style=""
         id="path3589" />
      <path
         d="m 892.26993,500.1774 c -0.495,0 -0.72,-0.27 -0.72,-0.72 l 0,-30.06 c 0,-0.45 0.225,-0.72 0.72,-0.72 l 4.68,0 c 0.45,0 0.72,0.27 0.72,0.72 l 0,30.06 c 0,0.45 -0.27,0.72 -0.72,0.72 l -4.68,0 z"
         style=""
         id="path3591" />
      <path
         d="m 902.16998,499.4574 c 0,0.495 0.225,0.72 0.72,0.72 l 10.8,0 c 4.23,0 6.48,-2.25 6.48,-6.48 l 0,-18.495 c 0,-4.23 -2.25,-6.525 -6.48,-6.525 l -10.8,0 c -0.495,0 -0.72,0.27 -0.72,0.72 l 0,30.06 z m 6.12,-5.22 0,-19.62 4.14,0 c 1.17,0 1.8,0.63 1.8,1.845 l 0,15.975 c 0,1.215 -0.63,1.8 -1.8,1.8 l -4.14,0 z"
         style=""
         id="path3593" />
      <path
         d="m 945.46003,500.1774 c 0.54,0 0.765,-0.27 0.63,-0.765 l -7.47,-30.105 c -0.09,-0.45 -0.36,-0.63 -0.765,-0.63 l -6.255,0 c -0.405,0 -0.675,0.18 -0.765,0.63 l -7.47,30.105 c -0.135,0.495 0.09,0.765 0.585,0.765 l 4.41,0 c 0.405,0 0.63,-0.225 0.72,-0.63 l 1.395,-5.67 8.46,0 1.44,5.67 c 0.09,0.405 0.315,0.63 0.72,0.63 l 4.365,0 z m -7.92,-11.52 -5.67,0 2.835,-12.24 2.835,12.24 z"
         style=""
         id="path3595" />
      <path
         d="m 948.83496,499.4574 c 0,0.495 0.225,0.72 0.72,0.72 l 10.8,0 c 4.23,0 6.48,-2.25 6.48,-6.48 l 0,-18.495 c 0,-4.23 -2.25,-6.525 -6.48,-6.525 l -10.8,0 c -0.495,0 -0.72,0.27 -0.72,0.72 l 0,30.06 z m 6.12,-5.22 0,-19.62 4.14,0 c 1.17,0 1.8,0.63 1.8,1.845 l 0,15.975 c 0,1.215 -0.63,1.8 -1.8,1.8 l -4.14,0 z"
         style=""
         id="path3597" />
    </g>
  </g>
</svg>
